<svg width="195" height="42" viewBox="0 0 195 42" fill="none" xmlns="http://www.w3.org/2000/svg">
<path d="M1 10C1 5.02944 5.02944 1 10 1H32C36.9706 1 41 5.02944 41 10V32C41 36.9706 36.9706 41 32 41H10C5.02944 41 1 36.9706 1 32V10Z" fill="url(#paint0_linear_2022_2500)"/>
<path d="M1 10C1 5.02944 5.02944 1 10 1H32C36.9706 1 41 5.02944 41 10V32C41 36.9706 36.9706 41 32 41H10C5.02944 41 1 36.9706 1 32V10Z" fill="white"/>
<path d="M48.0216 13.5013H52.062L55.4894 21.8589H55.6476L59.075 13.5013H63.1154V27H59.9385V18.7083H59.8264L56.5836 26.9143H54.5535L51.3106 18.6622H51.1986V27H48.0216V13.5013ZM69.8763 27.1911C68.8129 27.1911 67.899 26.9736 67.1344 26.5386C66.3742 26.0992 65.7876 25.4884 65.3745 24.7063C64.9659 23.9197 64.7616 23.0079 64.7616 21.9709C64.7616 20.9295 64.9659 20.0177 65.3745 19.2356C65.7876 18.449 66.3742 17.8383 67.1344 17.4032C67.899 16.9638 68.8129 16.7441 69.8763 16.7441C70.9397 16.7441 71.8515 16.9638 72.6117 17.4032C73.3762 17.8383 73.9629 18.449 74.3715 19.2356C74.7846 20.0177 74.9911 20.9295 74.9911 21.9709C74.9911 23.0079 74.7846 23.9197 74.3715 24.7063C73.9629 25.4884 73.3762 26.0992 72.6117 26.5386C71.8515 26.9736 70.9397 27.1911 69.8763 27.1911ZM69.8961 24.759C70.2828 24.759 70.6101 24.6404 70.8782 24.4031C71.1462 24.1658 71.3505 23.8362 71.4912 23.4144C71.6362 22.9926 71.7087 22.5048 71.7087 21.9512C71.7087 21.3887 71.6362 20.8966 71.4912 20.4747C71.3505 20.0529 71.1462 19.7233 70.8782 19.4861C70.6101 19.2488 70.2828 19.1301 69.8961 19.1301C69.4962 19.1301 69.1579 19.2488 68.8811 19.4861C68.6086 19.7233 68.3999 20.0529 68.2549 20.4747C68.1143 20.8966 68.044 21.3887 68.044 21.9512C68.044 22.5048 68.1143 22.9926 68.2549 23.4144C68.3999 23.8362 68.6086 24.1658 68.8811 24.4031C69.1579 24.6404 69.4962 24.759 69.8961 24.759ZM79.8652 21.2261V27H76.6422V16.876H79.7071V18.7347H79.8191C80.0432 18.1151 80.4255 17.6295 80.966 17.278C81.5064 16.9221 82.1502 16.7441 82.8972 16.7441C83.609 16.7441 84.2264 16.9045 84.7493 17.2253C85.2766 17.5417 85.6853 17.9855 85.9753 18.5567C86.2697 19.1235 86.4147 19.7871 86.4103 20.5472V27H83.1872V21.18C83.1916 20.6175 83.0488 20.1781 82.7588 19.8618C82.4732 19.5454 82.0755 19.3872 81.5658 19.3872C81.2274 19.3872 80.9286 19.4619 80.6694 19.6113C80.4145 19.7563 80.2168 19.965 80.0762 20.2375C79.9399 20.5099 79.8696 20.8394 79.8652 21.2261ZM93.1316 27.1911C92.0683 27.1911 91.1543 26.9736 90.3897 26.5386C89.6295 26.0992 89.0429 25.4884 88.6299 24.7063C88.2212 23.9197 88.0169 23.0079 88.0169 21.9709C88.0169 20.9295 88.2212 20.0177 88.6299 19.2356C89.0429 18.449 89.6295 17.8383 90.3897 17.4032C91.1543 16.9638 92.0683 16.7441 93.1316 16.7441C94.195 16.7441 95.1068 16.9638 95.867 17.4032C96.6315 17.8383 97.2182 18.449 97.6268 19.2356C98.0399 20.0177 98.2464 20.9295 98.2464 21.9709C98.2464 23.0079 98.0399 23.9197 97.6268 24.7063C97.2182 25.4884 96.6315 26.0992 95.867 26.5386C95.1068 26.9736 94.195 27.1911 93.1316 27.1911ZM93.1514 24.759C93.5381 24.759 93.8655 24.6404 94.1335 24.4031C94.4015 24.1658 94.6059 23.8362 94.7465 23.4144C94.8915 22.9926 94.964 22.5048 94.964 21.9512C94.964 21.3887 94.8915 20.8966 94.7465 20.4747C94.6059 20.0529 94.4015 19.7233 94.1335 19.4861C93.8655 19.2488 93.5381 19.1301 93.1514 19.1301C92.7515 19.1301 92.4132 19.2488 92.1364 19.4861C91.8639 19.7233 91.6552 20.0529 91.5102 20.4747C91.3696 20.8966 91.2993 21.3887 91.2993 21.9512C91.2993 22.5048 91.3696 22.9926 91.5102 23.4144C91.6552 23.8362 91.8639 24.1658 92.1364 24.4031C92.4132 24.6404 92.7515 24.759 93.1514 24.759ZM99.8975 27V13.5013H103.121V18.6094H103.186C103.318 18.3018 103.505 18.0052 103.747 17.7196C103.993 17.434 104.305 17.2011 104.683 17.021C105.065 16.8364 105.522 16.7441 106.054 16.7441C106.757 16.7441 107.414 16.9287 108.024 17.2978C108.64 17.6669 109.136 18.2359 109.514 19.0049C109.892 19.7739 110.081 20.7538 110.081 21.9446C110.081 23.0914 109.898 24.0515 109.534 24.8249C109.173 25.5983 108.686 26.1783 108.071 26.565C107.46 26.9517 106.781 27.145 106.034 27.145C105.524 27.145 105.083 27.0615 104.709 26.8945C104.336 26.7276 104.021 26.5079 103.766 26.2354C103.516 25.963 103.323 25.6708 103.186 25.3588H103.088V27H99.8975ZM103.055 21.938C103.055 22.4828 103.127 22.9574 103.272 23.3617C103.422 23.7659 103.635 24.0801 103.912 24.3042C104.193 24.5239 104.529 24.6338 104.92 24.6338C105.315 24.6338 105.652 24.5239 105.928 24.3042C106.205 24.0801 106.414 23.7659 106.555 23.3617C106.7 22.9574 106.772 22.4828 106.772 21.938C106.772 21.3931 106.7 20.9207 106.555 20.5209C106.414 20.121 106.205 19.8112 105.928 19.5915C105.656 19.3718 105.32 19.262 104.92 19.262C104.524 19.262 104.188 19.3696 103.912 19.5849C103.635 19.8002 103.422 20.1078 103.272 20.5077C103.127 20.9076 103.055 21.3843 103.055 21.938ZM114.624 27.1714C113.978 27.1714 113.404 27.0637 112.904 26.8484C112.407 26.6287 112.014 26.2991 111.724 25.8597C111.438 25.4159 111.295 24.8601 111.295 24.1922C111.295 23.6297 111.394 23.1551 111.592 22.7685C111.79 22.3818 112.062 22.0676 112.409 21.8259C112.756 21.5843 113.156 21.4019 113.609 21.2789C114.061 21.1514 114.545 21.0657 115.059 21.0218C115.634 20.9691 116.098 20.9141 116.45 20.857C116.801 20.7955 117.056 20.7098 117.214 20.6C117.377 20.4857 117.458 20.3253 117.458 20.1188V20.0859C117.458 19.7475 117.342 19.4861 117.109 19.3015C116.876 19.117 116.562 19.0247 116.166 19.0247C115.74 19.0247 115.397 19.117 115.138 19.3015C114.879 19.4861 114.714 19.7409 114.644 20.0661L111.671 19.9606C111.759 19.3454 111.985 18.7962 112.35 18.3128C112.719 17.8251 113.224 17.4428 113.866 17.166C114.512 16.8847 115.287 16.7441 116.193 16.7441C116.838 16.7441 117.434 16.821 117.979 16.9748C118.524 17.1242 118.998 17.3439 119.402 17.6339C119.807 17.9196 120.119 18.2711 120.338 18.6885C120.562 19.106 120.675 19.5827 120.675 20.1188V27H117.643V25.5895H117.563C117.383 25.9322 117.153 26.2222 116.871 26.4595C116.595 26.6968 116.267 26.8748 115.889 26.9934C115.516 27.112 115.094 27.1714 114.624 27.1714ZM115.619 25.0622C115.966 25.0622 116.278 24.9919 116.555 24.8513C116.836 24.7107 117.06 24.5173 117.227 24.2713C117.394 24.0208 117.478 23.7308 117.478 23.4012V22.4389C117.386 22.4872 117.273 22.5312 117.142 22.5707C117.014 22.6103 116.874 22.6476 116.72 22.6828C116.566 22.7179 116.408 22.7487 116.245 22.7751C116.083 22.8014 115.927 22.8256 115.777 22.8476C115.474 22.8959 115.215 22.9706 115 23.0717C114.789 23.1727 114.626 23.3045 114.512 23.4671C114.402 23.6253 114.347 23.8143 114.347 24.034C114.347 24.3679 114.466 24.6228 114.703 24.7985C114.945 24.9743 115.25 25.0622 115.619 25.0622ZM125.868 21.2261V27H122.645V16.876H125.71V18.7347H125.822C126.046 18.1151 126.429 17.6295 126.969 17.278C127.51 16.9221 128.153 16.7441 128.9 16.7441C129.612 16.7441 130.23 16.9045 130.752 17.2253C131.28 17.5417 131.688 17.9855 131.978 18.5567C132.273 19.1235 132.418 19.7871 132.413 20.5472V27H129.19V21.18C129.195 20.6175 129.052 20.1781 128.762 19.8618C128.476 19.5454 128.079 19.3872 127.569 19.3872C127.231 19.3872 126.932 19.4619 126.672 19.6113C126.418 19.7563 126.22 19.965 126.079 20.2375C125.943 20.5099 125.873 20.8394 125.868 21.2261ZM137.316 24.3438L137.329 20.5011H137.777L140.624 16.876H144.276L140.044 22.0698H139.194L137.316 24.3438ZM134.409 27V13.5013H137.632V27H134.409ZM140.697 27L138.047 22.7948L140.17 20.5077L144.421 27H140.697ZM149.417 13.5013H153.457L156.885 21.8589H157.043L160.47 13.5013H164.511V27H161.334V18.7083H161.222L157.979 26.9143H155.949L152.706 18.6622H152.594V27H149.417V13.5013ZM178.799 18.3919H175.503C175.459 18.0536 175.369 17.7482 175.233 17.4758C175.097 17.2033 174.917 16.9704 174.692 16.7771C174.468 16.5837 174.203 16.4365 173.895 16.3355C173.592 16.23 173.256 16.1773 172.886 16.1773C172.232 16.1773 171.667 16.3377 171.193 16.6584C170.722 16.9792 170.36 17.4428 170.105 18.0492C169.855 18.6556 169.729 19.3894 169.729 20.2506C169.729 21.147 169.857 21.8984 170.112 22.5048C170.371 23.1068 170.733 23.5616 171.199 23.8692C171.669 24.1724 172.225 24.324 172.867 24.324C173.227 24.324 173.554 24.2778 173.849 24.1856C174.148 24.0933 174.409 23.9593 174.633 23.7835C174.862 23.6033 175.048 23.3858 175.193 23.131C175.343 22.8717 175.446 22.5795 175.503 22.2544L178.799 22.2741C178.742 22.8717 178.568 23.4605 178.278 24.0406C177.992 24.6206 177.599 25.1501 177.098 25.629C176.597 26.1036 175.987 26.4815 175.266 26.7627C174.55 27.0439 173.728 27.1846 172.801 27.1846C171.579 27.1846 170.485 26.9165 169.518 26.3804C168.556 25.84 167.796 25.0534 167.238 24.0208C166.68 22.9882 166.401 21.7315 166.401 20.2506C166.401 18.7654 166.684 17.5065 167.251 16.4739C167.818 15.4413 168.585 14.6569 169.551 14.1208C170.518 13.5848 171.601 13.3167 172.801 13.3167C173.618 13.3167 174.374 13.431 175.068 13.6595C175.762 13.8836 176.373 14.2131 176.901 14.6481C177.428 15.0788 177.856 15.6083 178.186 16.2366C178.515 16.865 178.72 17.5834 178.799 18.3919ZM180.666 27V13.5013H186.242C187.253 13.5013 188.125 13.699 188.859 14.0945C189.597 14.4856 190.166 15.0326 190.566 15.7357C190.966 16.4343 191.165 17.2473 191.165 18.1744C191.165 19.106 190.961 19.9211 190.552 20.6197C190.148 21.314 189.57 21.8523 188.819 22.2346C188.068 22.6169 187.176 22.808 186.143 22.808H182.702V20.2375H185.537C186.029 20.2375 186.44 20.1518 186.769 19.9804C187.103 19.809 187.356 19.5695 187.527 19.262C187.699 18.95 187.784 18.5875 187.784 18.1744C187.784 17.757 187.699 17.3967 187.527 17.0935C187.356 16.7859 187.103 16.5486 186.769 16.3816C186.435 16.2146 186.024 16.1312 185.537 16.1312H183.928V27H180.666Z" fill="white"/>
<path fill-rule="evenodd" clip-rule="evenodd" d="M16.7886 12.9146V10.1623C16.7886 9.38378 16.3681 9.01097 15.6597 9.01097C15.0731 9.01097 14.5639 9.36185 14.3315 9.70177C14.1876 9.26316 13.8334 9.01097 13.269 9.01097C12.6824 9.01097 12.1732 9.37282 12.0072 9.60308V9.10965H11V12.9146H12.0072V10.3487C12.1622 10.1404 12.4499 9.89914 12.8041 9.89914C13.2136 9.89914 13.3797 10.1513 13.3797 10.5022V12.9146H14.3979V10.3377C14.5418 10.1294 14.8406 9.89914 15.1948 9.89914C15.6044 9.89914 15.7704 10.1513 15.7704 10.5022V12.9146H16.7886ZM19.5778 13.0133C18.3161 13.0133 17.5413 12.0922 17.5413 11.0066C17.5413 9.92107 18.305 9.01097 19.5778 9.01097C20.8507 9.01097 21.6144 9.93204 21.6144 11.0066C21.6144 12.0922 20.8507 13.0133 19.5778 13.0133ZM19.5778 12.1141C20.2087 12.1141 20.5629 11.5987 20.5629 10.9957C20.5629 10.4035 20.2087 9.88818 19.5778 9.88818C18.9469 9.88818 18.5928 10.4035 18.5928 10.9957C18.5928 11.5987 18.9469 12.1141 19.5778 12.1141ZM25.9752 12.9146V10.2171C25.9752 9.4715 25.5657 9 24.7245 9C24.0936 9 23.6288 9.29606 23.3742 9.59212V9.09869H22.367V12.9146H23.3742V10.3487C23.5402 10.1184 23.8501 9.89914 24.2486 9.89914C24.6802 9.89914 24.9569 10.0856 24.9569 10.6119V12.9146H25.9752ZM28.7644 13.0133C27.5026 13.0133 26.7278 12.0922 26.7278 11.0066C26.7278 9.92107 27.4916 9.01097 28.7644 9.01097C30.0372 9.01097 30.8009 9.93204 30.8009 11.0066C30.8009 12.0922 30.0372 13.0133 28.7644 13.0133ZM28.7644 12.1141C29.3953 12.1141 29.7495 11.5987 29.7495 10.9957C29.7495 10.4035 29.3953 9.88818 28.7644 9.88818C28.1335 9.88818 27.7793 10.4035 27.7793 10.9957C27.7793 11.5987 28.1335 12.1141 28.7644 12.1141Z" fill="#1A1B1F"/>
<path fill-rule="evenodd" clip-rule="evenodd" d="M23.1313 18.6705C22.798 18.3462 22.3513 18.1647 21.8863 18.1647C21.4212 18.1647 20.9745 18.3462 20.6413 18.6705L14.0017 25.1818C13.8906 25.2898 13.7417 25.3502 13.5868 25.3502C13.4318 25.3502 13.283 25.2898 13.1719 25.1818C13.1175 25.1289 13.0743 25.0656 13.0447 24.9957C13.0152 24.9258 13 24.8507 13 24.7749C13 24.699 13.0152 24.6239 13.0447 24.554C13.0743 24.4841 13.1175 24.4208 13.1719 24.3679L19.8115 17.8566C20.3669 17.3161 21.1113 17.0137 21.8863 17.0137C22.6613 17.0137 23.4057 17.3161 23.9611 17.8566C24.2824 18.1691 24.5252 18.5533 24.6696 18.9777C24.8139 19.4021 24.8557 19.8547 24.7915 20.2983C25.2411 20.2344 25.6993 20.2745 26.1309 20.4156C26.5625 20.5568 26.9559 20.7951 27.2809 21.1122L27.3154 21.1467C27.5873 21.4112 27.8035 21.7276 27.9512 22.0771C28.0988 22.4266 28.1748 22.8021 28.1748 23.1815C28.1748 23.5609 28.0988 23.9365 27.9512 24.2859C27.8035 24.6354 27.5873 24.9518 27.3154 25.2163L21.3103 31.1048C21.2922 31.1224 21.2778 31.1434 21.268 31.1667C21.2581 31.19 21.2531 31.215 21.2531 31.2403C21.2531 31.2656 21.2581 31.2906 21.268 31.3139C21.2778 31.3371 21.2922 31.3582 21.3103 31.3758L22.5436 32.5857C22.598 32.6386 22.6413 32.7018 22.6708 32.7717C22.7003 32.8416 22.7155 32.9167 22.7155 32.9926C22.7155 33.0685 22.7003 33.1436 22.6708 33.2135C22.6413 33.2834 22.598 33.3467 22.5436 33.3996C22.4325 33.5076 22.2837 33.568 22.1287 33.568C21.9738 33.568 21.825 33.5076 21.7138 33.3996L20.4806 32.1904C20.3535 32.067 20.2526 31.9193 20.1836 31.7562C20.1147 31.5931 20.0791 31.4178 20.0791 31.2406C20.0791 31.0635 20.1147 30.8882 20.1836 30.7251C20.2526 30.5619 20.3535 30.4143 20.4806 30.2908L26.4856 24.4017C26.6487 24.2429 26.7783 24.0531 26.8668 23.8434C26.9554 23.6337 27.001 23.4084 27.001 23.1808C27.001 22.9532 26.9554 22.7279 26.8668 22.5182C26.7783 22.3085 26.6487 22.1187 26.4856 21.96L26.4511 21.9262C26.1182 21.6022 25.6721 21.4207 25.2075 21.4203C24.743 21.4199 24.2966 21.6006 23.9631 21.9241L19.0162 26.7758L19.0148 26.7772L18.9472 26.8441C18.8361 26.9523 18.6871 27.0129 18.532 27.0129C18.3769 27.0129 18.2279 26.9523 18.1168 26.8441C18.0624 26.7912 18.0191 26.728 17.9896 26.6581C17.9601 26.5882 17.9449 26.513 17.9449 26.4372C17.9449 26.3613 17.9601 26.2862 17.9896 26.2163C18.0191 26.1464 18.0624 26.0831 18.1168 26.0302L23.1334 21.1102C23.296 20.9513 23.4252 20.7615 23.5134 20.5519C23.6015 20.3424 23.6469 20.1173 23.6467 19.8899C23.6465 19.6625 23.6008 19.4375 23.5123 19.2281C23.4237 19.0187 23.2942 18.8291 23.1313 18.6705Z" fill="#1A1B1F"/>
<path fill-rule="evenodd" clip-rule="evenodd" d="M22.3015 20.2981C22.3559 20.2452 22.3991 20.1819 22.4287 20.112C22.4582 20.0421 22.4734 19.967 22.4734 19.8911C22.4734 19.8153 22.4582 19.7401 22.4287 19.6702C22.3991 19.6003 22.3559 19.5371 22.3015 19.4842C22.1904 19.376 22.0414 19.3154 21.8863 19.3154C21.7312 19.3154 21.5822 19.376 21.471 19.4842L16.5607 24.3001C16.2887 24.5646 16.0725 24.8809 15.9249 25.2304C15.7772 25.5799 15.7012 25.9554 15.7012 26.3348C15.7012 26.7142 15.7772 27.0898 15.9249 27.4393C16.0725 27.7888 16.2887 28.1051 16.5607 28.3696C17.1161 28.91 17.8605 29.2123 18.6354 29.2123C19.4104 29.2123 20.1548 28.91 20.7102 28.3696L25.6213 23.5537C25.6757 23.5008 25.7189 23.4376 25.7485 23.3677C25.778 23.2978 25.7932 23.2227 25.7932 23.1468C25.7932 23.0709 25.778 22.9958 25.7485 22.9259C25.7189 22.856 25.6757 22.7927 25.6213 22.7398C25.5102 22.6316 25.3612 22.5711 25.2061 22.5711C25.051 22.5711 24.902 22.6316 24.7908 22.7398L19.8805 27.5557C19.5472 27.8801 19.1005 28.0615 18.6354 28.0615C18.1704 28.0615 17.7237 27.8801 17.3904 27.5557C17.2273 27.397 17.0977 27.2071 17.0092 26.9974C16.9207 26.7877 16.875 26.5624 16.875 26.3348C16.875 26.1072 16.9207 25.8819 17.0092 25.6722C17.0977 25.4625 17.2273 25.2727 17.3904 25.114L22.3015 20.2981Z" fill="#1A1B1F"/>
<defs>
<linearGradient id="paint0_linear_2022_2500" x1="21" y1="1" x2="21" y2="41" gradientUnits="userSpaceOnUse">
<stop stop-color="#323439"/>
<stop offset="1" stop-color="#1A1B1F"/>
</linearGradient>
</defs>
</svg>
